<?xml version="1.0" encoding="UTF-8" standalone="no"?>
<!-- Created with Inkscape (http://www.inkscape.org/) -->

<svg
   width="64"
   height="64"
   viewBox="0 0 64 64.000003"
   version="1.1"
   id="svg1"
   inkscape:version="1.3.2 (091e20e, 2023-11-25, custom)"
   sodipodi:docname="hit100k.svg"
   xmlns:inkscape="http://www.inkscape.org/namespaces/inkscape"
   xmlns:sodipodi="http://sodipodi.sourceforge.net/DTD/sodipodi-0.dtd"
   xmlns:xlink="http://www.w3.org/1999/xlink"
   xmlns="http://www.w3.org/2000/svg"
   xmlns:svg="http://www.w3.org/2000/svg">
  <sodipodi:namedview
     id="namedview1"
     pagecolor="#ffffff"
     bordercolor="#000000"
     borderopacity="0.25"
     inkscape:showpageshadow="2"
     inkscape:pageopacity="0.0"
     inkscape:pagecheckerboard="0"
     inkscape:deskcolor="#d1d1d1"
     inkscape:document-units="px"
     inkscape:zoom="4"
     inkscape:cx="34.25"
     inkscape:cy="22.75"
     inkscape:window-width="1350"
     inkscape:window-height="1032"
     inkscape:window-x="357"
     inkscape:window-y="0"
     inkscape:window-maximized="0"
     inkscape:current-layer="layer1" />
  <defs
     id="defs1">
    <linearGradient
       id="linearGradient76"
       inkscape:label="Great">
      <stop
         style="stop-color:#ffb0ca;stop-opacity:1;"
         offset="0"
         id="stop2" />
      <stop
         style="stop-color:#c24e7e;stop-opacity:1;"
         offset="1"
         id="stop3" />
    </linearGradient>
    <linearGradient
       inkscape:collect="always"
       xlink:href="#linearGradient101"
       id="linearGradient87"
       gradientUnits="userSpaceOnUse"
       x1="704"
       y1="521"
       x2="704"
       y2="567"
       gradientTransform="translate(0,80)" />
    <linearGradient
       id="linearGradient101"
       inkscape:collect="always">
      <stop
         style="stop-color:#e2e2e2;stop-opacity:1;"
         offset="0"
         id="stop100" />
      <stop
         style="stop-color:#919191;stop-opacity:1;"
         offset="1"
         id="stop101" />
    </linearGradient>
    <linearGradient
       inkscape:collect="always"
       xlink:href="#linearGradient101"
       id="linearGradient89"
       x1="704"
       y1="608"
       x2="704"
       y2="640"
       gradientUnits="userSpaceOnUse"
       gradientTransform="translate(-1.1440123,0.35543926)" />
  </defs>
  <g
     inkscape:label="Layer 1"
     inkscape:groupmode="layer"
     id="layer1">
    <g
       id="g90"
       transform="translate(-672,-592)"
       inkscape:label="100 Katsu">
      <path
         style="fill:url(#linearGradient87);fill-opacity:1;stroke:#000000;stroke-width:4;stroke-linecap:round;stroke-linejoin:round;stroke-opacity:1;paint-order:stroke fill markers"
         d="m 704,601 a 23,23 0 0 0 -23,23 23,23 0 0 0 23,23 23,23 0 0 0 23,-23 23,23 0 0 0 -23,-23 z"
         id="path1-9"
         inkscape:label="100" />
      <path
         d="m 718.80798,625.37634 q -0.576,0.448 -1.28,0.544 -0.672,0.064 -1.184,0.384 0,0.8 -0.064,2.08 -0.032,1.248 -0.224,2.72 -0.192,1.44 -0.576,2.816 -0.384,1.376 -1.056,2.4 -0.64,1.024 -1.6,1.44 -0.224,0.768 -1.12,0.736 -0.896,0 -1.888,-0.192 -0.352,-0.064 -0.704,-0.128 -0.352,-0.032 -0.672,-0.064 -0.704,-0.704 -1.6,-1.184 -0.896,-0.448 -1.696,-1.056 -0.032,-0.096 0.352,0.032 0.416,0.096 0.8,0.224 0.416,0.128 0.448,0.128 -0.512,-0.448 -1.312,-0.832 -0.768,-0.416 -1.344,-1.184 0.992,0.48 2.24,0.64 1.28,0.16 2.24,0.192 0.192,-0.032 0.32,0 0.16,0.032 0.32,0.096 0.128,0.032 0.256,0.064 0.128,0.032 0.288,-0.032 1.216,-0.448 1.952,-1.632 0.736,-1.216 1.088,-2.816 0.352,-1.6 0.384,-3.2 0.032,-1.632 -0.192,-2.912 -1.568,-0.032 -3.04,0.128 -1.472,0.16 -2.752,0.32 -0.8,0.096 -1.536,0.192 -0.736,0.064 -1.344,0.096 -0.32,0.224 -0.576,0.512 -0.256,0.288 -0.576,0.544 0.128,0.32 0.192,0.672 0.096,0.352 0.032,0.832 0.192,-0.032 0.384,-0.064 0.224,-0.032 0.448,-0.064 1.024,-0.128 2.048,-0.192 1.056,-0.096 1.952,0.096 0.928,0.16 1.536,0.832 -0.608,0.512 -1.568,0.672 -0.96,0.128 -1.856,0.256 -0.768,0.096 -1.6,0.096 -0.8,0 -1.568,0.256 -0.032,0.32 -0.032,0.832 0,0.512 -0.096,0.8 0.64,0.192 1.344,0.192 0.736,-0.032 1.44,-0.096 0.8,-0.064 1.504,-0.032 0.736,0 1.312,0.288 0.576,0.288 0.864,1.056 -1.472,0.512 -3.104,0.544 -1.632,0.032 -3.456,-0.064 -0.288,0 -0.544,0 -0.256,-0.032 -0.544,-0.032 -0.384,-0.32 -0.672,-0.736 -0.256,-0.448 -0.608,-0.768 0.288,-0.928 0.384,-1.696 0.128,-0.768 0.064,-2.048 -0.736,0.32 -1.664,0.736 -0.928,0.384 -1.76,0.448 -0.064,-0.256 0.16,-0.448 0.256,-0.224 0.608,-0.48 0.192,-0.128 0.384,-0.256 0.224,-0.16 0.384,-0.352 0.16,-0.16 0.32,-0.288 0.16,-0.16 0.32,-0.288 0.448,-0.384 0.736,-0.768 0.32,-0.384 0.064,-0.864 0.832,-0.096 1.216,-0.512 0.416,-0.416 0.736,-0.96 0.32,-0.576 0.864,-0.992 0.032,-0.544 -0.224,-0.8 -0.256,-0.288 -0.576,-0.512 -0.128,-0.096 -0.288,-0.192 -0.128,-0.096 -0.224,-0.224 0.064,-0.256 0.32,-0.352 0.288,-0.128 0.416,-0.352 -0.128,-0.736 -0.096,-1.408 0.032,-0.704 0.096,-1.376 0.096,-0.992 0.064,-1.92 0,-0.96 -0.544,-1.856 -0.096,-0.16 -0.256,-0.288 -0.128,-0.16 -0.256,-0.288 -0.32,-0.288 -0.576,-0.608 -0.256,-0.352 -0.224,-0.896 1.824,-0.384 3.968,-0.48 2.144,-0.096 4.416,-0.448 0.672,-0.672 1.152,-0.704 0.48,-0.064 0.832,-0.032 0.096,0.032 0.128,0.032 0.32,0.352 0.768,0.512 0.48,0.128 0.96,0.288 0.512,0.128 0.96,0.448 0.448,0.288 0.736,0.96 -0.256,0.576 -0.704,0.672 -0.448,0.096 -1.056,0.256 -0.128,0.576 -0.192,1.472 -0.032,0.864 -0.032,1.824 -0.032,1.344 -0.128,2.656 -0.064,1.312 -0.384,2.208 -0.32,0.864 -1.056,0.96 -0.192,0.032 -0.448,-0.032 -0.224,-0.096 -0.512,-0.192 -0.416,-0.128 -0.928,-0.256 -0.512,-0.16 -1.152,-0.128 -0.704,0.032 -1.312,0.16 -0.576,0.128 -1.408,0.192 0.224,0.224 0.416,0.576 0.192,0.352 -0.128,0.768 1.6,-0.256 3.328,-0.288 1.76,-0.032 3.424,-0.448 0.192,-0.032 0.352,-0.096 0.192,-0.096 0.384,-0.192 0.384,-0.16 0.8,-0.288 0.416,-0.128 0.96,-0.032 0.288,0.032 0.896,0.384 0.64,0.32 1.312,0.8 0.672,0.48 1.088,0.992 0.448,0.48 0.352,0.864 z m -16.48,-6.752 q -0.512,0.544 -1.184,0.608 -0.64,0.064 -1.184,0.416 -0.608,0.384 -0.832,1.056 -0.192,0.672 -0.256,1.504 -0.032,0.8 -0.064,1.632 -0.032,0.832 -0.224,1.568 -0.192,0.736 -0.736,1.248 -1.472,0.224 -3.008,0.448 -1.536,0.192 -2.784,0.512 0.064,0.384 0,0.704 -0.032,0.32 -0.128,0.672 -0.064,0.224 -0.096,0.352 -0.896,-0.16 -1.408,-0.768 -0.512,-0.608 -0.96,-1.216 -0.096,-0.128 -0.032,-0.448 0.096,-0.32 0.224,-0.64 0.064,-0.192 0.096,-0.32 0.064,-0.16 0.064,-0.224 0,-0.384 0,-0.704 0.032,-0.352 0.032,-0.672 0.032,-1.056 0.032,-1.952 0,-0.896 -0.16,-2.144 -0.64,-0.448 -1.28,-0.896 -0.608,-0.48 -0.736,-1.44 1.632,-0.416 3.616,-0.576 2.016,-0.192 3.936,-0.672 0.32,-0.096 0.608,-0.192 0.288,-0.096 0.544,-0.224 0.416,-0.16 0.832,-0.288 0.416,-0.16 0.96,-0.128 0.48,0.032 1.088,0.288 0.64,0.256 1.152,0.64 0.512,0.352 0.704,0.8 0.352,0.224 0.672,0.448 0.32,0.224 0.512,0.608 z m 7.424,1.728 q 0.032,-0.448 0.032,-0.864 0.032,-0.416 0.064,-0.8 0.096,-1.536 0.096,-2.912 0.032,-1.376 -0.192,-3.008 -1.28,-0.16 -2.56,-0.064 -1.28,0.096 -2.048,0.544 0.096,0.384 0.064,0.704 -0.032,0.32 -0.096,0.672 -0.032,0.256 -0.096,0.544 -0.032,0.288 0,0.64 0.768,-0.256 1.568,-0.096 0.8,0.128 1.472,0.448 0.672,0.288 0.992,0.576 -0.416,0.576 -1.408,0.704 -0.96,0.096 -1.856,0.096 -0.192,0.032 -0.416,0.032 -0.192,0 -0.352,0 0.032,0.288 0.032,0.704 0,0.416 -0.032,0.896 0,0.384 0,0.8 0,0.384 0,0.736 0.832,0.16 2.144,0 1.312,-0.16 2.368,-0.32 0.16,-0.032 0.224,-0.032 z m -13.568,2.592 q 0.032,-0.288 0.032,-0.544 0.032,-0.288 0.064,-0.608 0.128,-1.12 0.16,-2.144 0.032,-1.056 -0.352,-1.504 -0.896,0.128 -1.824,0.32 -0.896,0.16 -1.6,0.512 -0.352,1.472 -0.416,3.392 -0.064,1.888 0.064,3.488 1.024,-0.064 1.952,-0.224 0.928,-0.16 1.824,-0.352 0.064,-0.192 0.064,-0.512 0,-0.32 0,-0.704 0,-0.288 0,-0.576 0,-0.288 0.032,-0.544 z"
         id="text87"
         style="font-size:32px;font-family:'Yuji Mai';-inkscape-font-specification:'Yuji Mai';text-align:center;letter-spacing:0px;text-anchor:middle;fill:url(#linearGradient89);stroke:#000000;stroke-width:4;stroke-linecap:round;stroke-linejoin:round;stroke-dasharray:none;paint-order:stroke fill markers"
         aria-label="å–"
         inkscape:label="Katsu" />
    </g>
  </g>
</svg>
