<?xml version="1.0" encoding="UTF-8" standalone="no"?>
<!-- Created with Inkscape (http://www.inkscape.org/) -->

<svg
   width="64"
   height="64"
   viewBox="0 0 64 64.000003"
   version="1.1"
   id="svg1"
   inkscape:version="1.3.2 (091e20e, 2023-11-25, custom)"
   sodipodi:docname="hit100.svg"
   xmlns:inkscape="http://www.inkscape.org/namespaces/inkscape"
   xmlns:sodipodi="http://sodipodi.sourceforge.net/DTD/sodipodi-0.dtd"
   xmlns:xlink="http://www.w3.org/1999/xlink"
   xmlns="http://www.w3.org/2000/svg"
   xmlns:svg="http://www.w3.org/2000/svg">
  <sodipodi:namedview
     id="namedview1"
     pagecolor="#ffffff"
     bordercolor="#000000"
     borderopacity="0.25"
     inkscape:showpageshadow="2"
     inkscape:pageopacity="0.0"
     inkscape:pagecheckerboard="0"
     inkscape:deskcolor="#d1d1d1"
     inkscape:document-units="px"
     inkscape:zoom="4"
     inkscape:cx="34.375"
     inkscape:cy="62.75"
     inkscape:window-width="1350"
     inkscape:window-height="1032"
     inkscape:window-x="357"
     inkscape:window-y="38"
     inkscape:window-maximized="0"
     inkscape:current-layer="layer1" />
  <defs
     id="defs1">
    <linearGradient
       id="linearGradient76"
       inkscape:label="Great">
      <stop
         style="stop-color:#ffb0ca;stop-opacity:1;"
         offset="0"
         id="stop2" />
      <stop
         style="stop-color:#c24e7e;stop-opacity:1;"
         offset="1"
         id="stop3" />
    </linearGradient>
    <linearGradient
       inkscape:collect="always"
       xlink:href="#linearGradient80"
       id="linearGradient81"
       x1="704"
       y1="521"
       x2="704"
       y2="567"
       gradientUnits="userSpaceOnUse"
       gradientTransform="translate(-672,-512)" />
    <linearGradient
       id="linearGradient80"
       inkscape:collect="always"
       inkscape:label="Good">
      <stop
         style="stop-color:#e2e2e2;stop-opacity:1;"
         offset="0"
         id="stop80" />
      <stop
         style="stop-color:#919191;stop-opacity:1;"
         offset="1"
         id="stop81" />
    </linearGradient>
  </defs>
  <g
     inkscape:label="Layer 1"
     inkscape:groupmode="layer"
     id="layer1">
    <path
       id="path1"
       style="fill:url(#linearGradient81);stroke:#000000;stroke-width:4;stroke-linecap:round;stroke-linejoin:round;stroke-opacity:1;paint-order:stroke fill markers"
       d="M 32,9 A 23,23 0 0 0 9,32 23,23 0 0 0 32,55 23,23 0 0 0 55,32 23,23 0 0 0 32,9 Z m 0,8 A 15,15 0 0 1 47,32 15,15 0 0 1 32,47 15,15 0 0 1 17,32 15,15 0 0 1 32,17 Z"
       inkscape:label="100" />
  </g>
</svg>
