<?xml version="1.0" encoding="UTF-8" standalone="no"?>
<!-- Created with Inkscape (http://www.inkscape.org/) -->

<svg
   width="130"
   height="130"
   viewBox="0 0 130 130"
   version="1.1"
   id="svg1"
   inkscape:version="1.3.2 (091e20e, 2023-11-25, custom)"
   sodipodi:docname="hitcircle.svg"
   xmlns:inkscape="http://www.inkscape.org/namespaces/inkscape"
   xmlns:sodipodi="http://sodipodi.sourceforge.net/DTD/sodipodi-0.dtd"
   xmlns="http://www.w3.org/2000/svg"
   xmlns:svg="http://www.w3.org/2000/svg">
  <sodipodi:namedview
     id="namedview1"
     pagecolor="#ffffff"
     bordercolor="#000000"
     borderopacity="0.25"
     inkscape:showpageshadow="2"
     inkscape:pageopacity="0.0"
     inkscape:pagecheckerboard="0"
     inkscape:deskcolor="#d1d1d1"
     inkscape:document-units="px"
     inkscape:zoom="1"
     inkscape:cx="-3"
     inkscape:cy="36.5"
     inkscape:window-width="1920"
     inkscape:window-height="1009"
     inkscape:window-x="-8"
     inkscape:window-y="-8"
     inkscape:window-maximized="1"
     inkscape:current-layer="path9" />
  <defs
     id="defs1" />
  <g
     inkscape:label="Layer 1"
     inkscape:groupmode="layer"
     id="layer1">
    <g
       id="g9"
       inkscape:label="Circle">
      <g
         id="path9"
         inkscape:label="Body"
         transform="translate(65,65)">
        <circle
           style="fill:#111111;fill-opacity:0.6;stroke:none;stroke-width:6;stroke-linejoin:round;stroke-dasharray:none;stroke-opacity:1;paint-order:stroke fill markers"
           id="path149"
           cx="0"
           cy="0"
           inkscape:label="Center"
           r="40" />
        <path
           d="M 0,-59 A 59,59 0 0 0 -59,0 59,59 0 0 0 0,59 59,59 0 0 0 59,0 59,59 0 0 0 0,-59 Z m 0,19 A 40,40 0 0 1 40,0 40,40 0 0 1 0,40 40,40 0 0 1 -40,0 40,40 0 0 1 0,-40 Z"
           style="fill:#e2e2e2;stroke-width:6;stroke-linecap:round;stroke-linejoin:round"
           id="path3" />
      </g>
    </g>
  </g>
</svg>
