<?xml version="1.0" encoding="UTF-8" standalone="no"?>
<!-- Created with Inkscape (http://www.inkscape.org/) -->

<svg
   width="160"
   height="160"
   viewBox="0 0 160 160"
   version="1.1"
   id="svg1"
   inkscape:version="1.3.2 (091e20e, 2023-11-25, custom)"
   sodipodi:docname="reversearrow.svg"
   xmlns:inkscape="http://www.inkscape.org/namespaces/inkscape"
   xmlns:sodipodi="http://sodipodi.sourceforge.net/DTD/sodipodi-0.dtd"
   xmlns="http://www.w3.org/2000/svg"
   xmlns:svg="http://www.w3.org/2000/svg">
  <sodipodi:namedview
     id="namedview1"
     pagecolor="#ffffff"
     bordercolor="#000000"
     borderopacity="0.25"
     inkscape:showpageshadow="2"
     inkscape:pageopacity="0.0"
     inkscape:pagecheckerboard="0"
     inkscape:deskcolor="#d1d1d1"
     inkscape:document-units="px"
     inkscape:zoom="1"
     inkscape:cx="38"
     inkscape:cy="42.5"
     inkscape:window-width="1920"
     inkscape:window-height="1009"
     inkscape:window-x="-8"
     inkscape:window-y="-8"
     inkscape:window-maximized="1"
     inkscape:current-layer="g163" />
  <defs
     id="defs1">
    <filter
       style="color-interpolation-filters:sRGB"
       inkscape:label="Drop Shadow"
       id="filter164"
       x="-0.1399637"
       y="-0.48484846"
       width="1.2799274"
       height="1.9696969">
      <feFlood
         result="flood"
         in="SourceGraphic"
         flood-opacity="1.000000"
         flood-color="rgb(0,0,0)"
         id="feFlood163" />
      <feGaussianBlur
         result="blur"
         in="SourceGraphic"
         stdDeviation="5.000000"
         id="feGaussianBlur163" />
      <feOffset
         result="offset"
         in="blur"
         dx="0.000000"
         dy="0.000000"
         id="feOffset163" />
      <feComposite
         result="comp1"
         operator="in"
         in="flood"
         in2="offset"
         id="feComposite163" />
      <feComposite
         result="comp2"
         operator="over"
         in="SourceGraphic"
         in2="comp1"
         id="feComposite164" />
    </filter>
  </defs>
  <g
     inkscape:label="Layer 1"
     inkscape:groupmode="layer"
     id="layer1">
    <g
       id="g163"
       inkscape:label="Reverse mark"
       inkscape:transform-center-x="25.682399"
       transform="rotate(-90,472,600)"
       inkscape:transform-center-y="1.0026948e-06">
      <path
         style="color:#000000;fill:#f3f3f3;stroke-linecap:round;stroke-linejoin:round;paint-order:stroke fill markers;stroke:#000000;stroke-opacity:1;stroke-width:4;stroke-dasharray:none"
         d="m 992,138 c -25.00215,0 -48.12002,13.3475 -60.62109,35 a 4,4 0 0 0 1.46289,5.46484 A 4,4 0 0 0 938.30664,177 c 11.07843,-19.1884 31.5365,-31 53.69336,-31 22.1569,0 42.6149,11.8116 53.6934,31 a 4,4 0 0 0 5.4648,1.46484 A 4,4 0 0 0 1052.6211,173 C 1040.12,151.3475 1017.0022,138 992,138 Z"
         id="path162" />
      <path
         style="fill:#f1f1f1;fill-opacity:1;stroke:#000000;stroke-width:4;stroke-linecap:round;stroke-linejoin:round;stroke-dasharray:none;stroke-opacity:1;paint-order:stroke fill markers"
         d="M 992.00001,211.87478 C 988,207 985,203 980,199 c -2.20863,-1.7669 -4,-1 -5,0 l -2,2 c -2,2 -1.13137,3.15147 0,4 4,3 7,6 9,8 3,3 5,5 7.00001,8 1.56894,2.35339 4,2 6,0 3,-3 4,-5 7.99999,-9 2,-2 4,-4 7,-6.00022 1.1767,-0.78453 2.0001,-3.00011 0,-5 L 1008,199 c -2,-1.99978 -3.9894,-1.01057 -6,1 -3.99999,4 -6.99999,8 -9.99999,11.87478 z"
         id="path164"
         sodipodi:nodetypes="cssssssssssssc"
         inkscape:label="Arrow" />
    </g>
  </g>
</svg>
