<?xml version="1.0" encoding="UTF-8" standalone="no"?>
<!-- Created with Inkscape (http://www.inkscape.org/) -->

<svg
   width="540"
   height="24"
   viewBox="0 0 540 24"
   version="1.1"
   id="svg1"
   inkscape:version="1.4.2 (ebf0e940d0, 2025-05-08)"
   sodipodi:docname="scorebar-colour.svg"
   xmlns:inkscape="http://www.inkscape.org/namespaces/inkscape"
   xmlns:sodipodi="http://sodipodi.sourceforge.net/DTD/sodipodi-0.dtd"
   xmlns="http://www.w3.org/2000/svg"
   xmlns:svg="http://www.w3.org/2000/svg">
  <sodipodi:namedview
     id="namedview1"
     pagecolor="#ffffff"
     bordercolor="#000000"
     borderopacity="0.25"
     inkscape:showpageshadow="2"
     inkscape:pageopacity="0.0"
     inkscape:pagecheckerboard="0"
     inkscape:deskcolor="#d1d1d1"
     inkscape:document-units="px"
     inkscape:zoom="2.8284271"
     inkscape:cx="275.94842"
     inkscape:cy="-15.026019"
     inkscape:window-width="2259"
     inkscape:window-height="1218"
     inkscape:window-x="0"
     inkscape:window-y="0"
     inkscape:window-maximized="1"
     inkscape:current-layer="layer1" />
  <defs
     id="defs1">
    <inkscape:path-effect
       effect="fillet_chamfer"
       id="path-effect2"
       is_visible="true"
       lpeversion="1"
       nodesatellites_param="F,0,0,1,0,2,0,1 @ F,0,0,1,0,2,0,1 @ F,0,0,1,0,2,0,1 @ F,0,0,1,0,0,0,1"
       radius="2"
       unit="px"
       method="auto"
       mode="F"
       chamfer_steps="1"
       flexible="false"
       use_knot_distance="true"
       apply_no_radius="true"
       apply_with_radius="true"
       only_selected="false"
       hide_knots="false" />
    <inkscape:path-effect
       effect="fillet_chamfer"
       id="path-effect1"
       is_visible="true"
       lpeversion="1"
       nodesatellites_param="F,0,0,1,0,2,0,1 @ F,0,0,1,0,2,0,1 @ F,0,0,1,0,0,0,1 @ F,0,0,1,0,2,0,1 @ F,0,0,1,0,2,0,1 @ F,0,0,1,0,2,0,1"
       radius="2"
       unit="px"
       method="auto"
       mode="F"
       chamfer_steps="1"
       flexible="false"
       use_knot_distance="true"
       apply_no_radius="true"
       apply_with_radius="true"
       only_selected="false"
       hide_knots="false" />
  </defs>
  <g
     inkscape:label="Layer 1"
     inkscape:groupmode="layer"
     id="layer1"
     transform="translate(133,-145)">
    <g
       id="g2"
       transform="matrix(1,0,0,-1,0,314)">
      <path
         style="fill:#ff4898;fill-opacity:1;paint-order:stroke fill markers"
         d="m -136,91 v -8 a 2,2 135 0 1 2,-2 H 134 V 71 a 2,2 135 0 1 2,-2 h 266 a 2,2 45 0 1 2,2 v 20 a 2,2 135 0 1 -2,2 l -536,0 a 2,2 45 0 1 -2,-2 z"
         id="path1"
         sodipodi:nodetypes="ccccccc"
         inkscape:path-effect="#path-effect1"
         inkscape:original-d="M -136,93 V 81 H 134 V 69 h 270 v 24 z"
         transform="translate(3,76)" />
      <path
         style="fill:#f7be00;fill-opacity:1;paint-order:stroke fill markers"
         d="m 139,145 h 266 a 2,2 45 0 1 2,2 v 20 a 2,2 135 0 1 -2,2 H 137 v -22 a 2,2 135 0 1 2,-2 z"
         id="path2"
         sodipodi:nodetypes="ccccc"
         inkscape:path-effect="#path-effect2"
         inkscape:original-d="m 137,145 h 270 v 24 H 137 Z" />
    </g>
  </g>
</svg>
