<?xml version="1.0" encoding="UTF-8" standalone="no"?>
<!-- Created with Inkscape (http://www.inkscape.org/) -->

<svg
   width="1024"
   height="692"
   viewBox="0 0 1024 692"
   version="1.1"
   id="svg1"
   inkscape:version="1.3.2 (091e20e, 2023-11-25, custom)"
   sodipodi:docname="spinner-metre.svg"
   xmlns:inkscape="http://www.inkscape.org/namespaces/inkscape"
   xmlns:sodipodi="http://sodipodi.sourceforge.net/DTD/sodipodi-0.dtd"
   xmlns="http://www.w3.org/2000/svg"
   xmlns:svg="http://www.w3.org/2000/svg">
  <sodipodi:namedview
     id="namedview1"
     pagecolor="#000000"
     bordercolor="#000000"
     borderopacity="0.25"
     inkscape:showpageshadow="2"
     inkscape:pageopacity="0.0"
     inkscape:pagecheckerboard="0"
     inkscape:deskcolor="#d1d1d1"
     inkscape:document-units="px"
     inkscape:zoom="1"
     inkscape:cx="504.5"
     inkscape:cy="352.5"
     inkscape:window-width="1920"
     inkscape:window-height="1009"
     inkscape:window-x="-8"
     inkscape:window-y="-8"
     inkscape:window-maximized="1"
     inkscape:current-layer="layer1" />
  <defs
     id="defs1">
    <inkscape:path-effect
       effect="fillet_chamfer"
       id="path-effect27"
       is_visible="true"
       lpeversion="1"
       nodesatellites_param="F,0,0,1,0,12,0,1 @ F,0,0,1,0,12,0,1 @ F,0,0,1,0,12,0,1 @ F,0,0,1,0,12,0,1 @ F,0,0,1,0,12,0,1 @ F,0,0,1,0,12,0,1 @ F,0,0,1,0,12,0,1 | F,0,0,1,0,12,0,1 @ F,0,0,1,0,12,0,1 @ F,0,0,1,0,12,0,1 @ F,0,0,1,0,12,0,1 | F,0,0,1,0,12,0,1 @ F,0,0,1,0,12,0,1 @ F,0,0,1,0,12,0,1 @ F,0,0,1,0,12,0,1 | F,0,0,1,0,12,0,1 @ F,0,0,1,0,12,0,1 @ F,0,0,1,0,12,0,1 @ F,0,0,1,0,12,0,1 | F,0,0,1,0,12,0,1 @ F,0,0,1,0,12,0,1 @ F,0,0,1,0,12,0,1 @ F,0,0,1,0,12,0,1 | F,0,0,1,0,12,0,1 @ F,0,0,1,0,12,0,1 @ F,0,0,1,0,12,0,1 @ F,0,0,1,0,12,0,1 | F,0,0,1,0,12,0,1 @ F,0,0,1,0,12,0,1 @ F,0,0,1,0,12,0,1 @ F,0,0,1,0,12,0,1 | F,0,0,1,0,12,0,1 @ F,0,0,1,0,12,0,1 @ F,0,0,1,0,12,0,1 @ F,0,0,1,0,12,0,1 | F,0,0,1,0,12,0,1 @ F,0,0,1,0,12,0,1 @ F,0,0,1,0,12,0,1 @ F,0,0,1,0,12,0,1 | F,0,0,1,0,12,0,1 @ F,0,0,1,0,12,0,1 @ F,0,0,1,0,12,0,1 @ F,0,0,1,0,12,0,1 | F,0,0,1,0,12,0,1 @ F,0,0,1,0,12,0,1 @ F,0,0,1,0,12,0,1 @ F,0,0,1,0,12,0,1 | F,0,0,1,0,12,0,1 @ F,0,0,1,0,12,0,1 @ F,0,0,1,0,12,0,1 @ F,0,0,1,0,12,0,1 | F,0,0,1,0,12,0,1 @ F,0,0,1,0,12,0,1 @ F,0,0,1,0,12,0,1 @ F,0,0,1,0,12,0,1 | F,0,0,1,0,12,0,1 @ F,0,0,1,0,12,0,1 @ F,0,0,1,0,12,0,1 @ F,0,0,1,0,12,0,1 | F,0,0,1,0,12,0,1 @ F,0,0,1,0,12,0,1 @ F,0,0,1,0,12,0,1 @ F,0,0,1,0,12,0,1 | F,0,0,1,0,12,0,1 @ F,0,0,1,0,12,0,1 @ F,0,0,1,0,12,0,1 @ F,0,0,1,0,12,0,1 | F,0,0,1,0,12,0,1 @ F,0,0,1,0,12,0,1 @ F,0,0,1,0,12,0,1 @ F,0,0,1,0,12,0,1 | F,0,0,1,0,12,0,1 @ F,0,0,1,0,12,0,1 @ F,0,0,1,0,12,0,1 @ F,0,0,1,0,12,0,1 | F,0,0,1,0,12,0,1 @ F,0,0,1,0,12,0,1 @ F,0,0,1,0,12,0,1 @ F,0,0,1,0,12,0,1"
       radius="12"
       unit="px"
       method="auto"
       mode="F"
       chamfer_steps="1"
       flexible="false"
       use_knot_distance="true"
       apply_no_radius="true"
       apply_with_radius="true"
       only_selected="false"
       hide_knots="false" />
    <inkscape:path-effect
       effect="fillet_chamfer"
       id="path-effect27-9"
       is_visible="true"
       lpeversion="1"
       nodesatellites_param="F,0,0,1,0,12,0,1 @ F,0,0,1,0,12,0,1 @ F,0,0,1,0,12,0,1 @ F,0,0,1,0,12,0,1 @ F,0,0,1,0,12,0,1 @ F,0,0,1,0,12,0,1 @ F,0,0,1,0,12,0,1 | F,0,0,1,0,12,0,1 @ F,0,0,1,0,12,0,1 @ F,0,0,1,0,12,0,1 @ F,0,0,1,0,12,0,1 | F,0,0,1,0,12,0,1 @ F,0,0,1,0,12,0,1 @ F,0,0,1,0,12,0,1 @ F,0,0,1,0,12,0,1 | F,0,0,1,0,12,0,1 @ F,0,0,1,0,12,0,1 @ F,0,0,1,0,12,0,1 @ F,0,0,1,0,12,0,1 | F,0,0,1,0,12,0,1 @ F,0,0,1,0,12,0,1 @ F,0,0,1,0,12,0,1 @ F,0,0,1,0,12,0,1 | F,0,0,1,0,12,0,1 @ F,0,0,1,0,12,0,1 @ F,0,0,1,0,12,0,1 @ F,0,0,1,0,12,0,1 | F,0,0,1,0,12,0,1 @ F,0,0,1,0,12,0,1 @ F,0,0,1,0,12,0,1 @ F,0,0,1,0,12,0,1 | F,0,0,1,0,12,0,1 @ F,0,0,1,0,12,0,1 @ F,0,0,1,0,12,0,1 @ F,0,0,1,0,12,0,1 | F,0,0,1,0,12,0,1 @ F,0,0,1,0,12,0,1 @ F,0,0,1,0,12,0,1 @ F,0,0,1,0,12,0,1 | F,0,0,1,0,12,0,1 @ F,0,0,1,0,12,0,1 @ F,0,0,1,0,12,0,1 @ F,0,0,1,0,12,0,1 | F,0,0,1,0,12,0,1 @ F,0,0,1,0,12,0,1 @ F,0,0,1,0,12,0,1 @ F,0,0,1,0,12,0,1 | F,0,0,1,0,12,0,1 @ F,0,0,1,0,12,0,1 @ F,0,0,1,0,12,0,1 @ F,0,0,1,0,12,0,1 | F,0,0,1,0,12,0,1 @ F,0,0,1,0,12,0,1 @ F,0,0,1,0,12,0,1 @ F,0,0,1,0,12,0,1 | F,0,0,1,0,12,0,1 @ F,0,0,1,0,12,0,1 @ F,0,0,1,0,12,0,1 @ F,0,0,1,0,12,0,1 | F,0,0,1,0,12,0,1 @ F,0,0,1,0,12,0,1 @ F,0,0,1,0,12,0,1 @ F,0,0,1,0,12,0,1 | F,0,0,1,0,12,0,1 @ F,0,0,1,0,12,0,1 @ F,0,0,1,0,12,0,1 @ F,0,0,1,0,12,0,1 | F,0,0,1,0,12,0,1 @ F,0,0,1,0,12,0,1 @ F,0,0,1,0,12,0,1 @ F,0,0,1,0,12,0,1 | F,0,0,1,0,12,0,1 @ F,0,0,1,0,12,0,1 @ F,0,0,1,0,12,0,1 @ F,0,0,1,0,12,0,1 | F,0,0,1,0,12,0,1 @ F,0,0,1,0,12,0,1 @ F,0,0,1,0,12,0,1 @ F,0,0,1,0,12,0,1"
       radius="12"
       unit="px"
       method="auto"
       mode="F"
       chamfer_steps="1"
       flexible="false"
       use_knot_distance="true"
       apply_no_radius="true"
       apply_with_radius="true"
       only_selected="false"
       hide_knots="false" />
    <filter
       style="color-interpolation-filters:sRGB;"
       inkscape:label="Blur"
       id="filter42"
       x="-0.019047619"
       y="-0.028402367"
       width="1.0380952"
       height="1.0568047">
      <feGaussianBlur
         stdDeviation="8 8"
         result="blur"
         id="feGaussianBlur42" />
    </filter>
  </defs>
  <g
     inkscape:label="Layer 1"
     inkscape:groupmode="layer"
     id="layer1">
    <path
       id="path7-5"
       style="fill:#e60082;fill-opacity:0.40000001;stroke:none;stroke-width:2;stroke-linecap:round;stroke-linejoin:round;filter:url(#filter42)"
       d="M 1004,8 H 20 A 12,12 135 0 0 8,20 v 29.199219 a 12,12 45 0 0 12,12 h 311.82812 c 6.62742,0 16.62421,-2.739277 22.45606,-5.8869 44.9021,-24.235009 94.73837,-37.925743 145.71975,-40.031299 6.62142,-0.273468 17.3707,-0.299257 23.99335,-0.05757 51.53153,1.880626 101.94297,15.59857 147.32188,40.089176 5.83194,3.147449 15.82881,5.886588 22.45623,5.886588 H 1004 a 12,12 135 0 0 12,-12 V 20 A 12,12 45 0 0 1004,8 Z m 0,69.199219 H 718.73633 c -6.62742,0 -7.6105,3.101492 -2.35492,7.138423 14.63121,11.238551 28.31198,23.663138 40.90346,37.147648 4.52291,4.84368 13.40412,8.9151 20.03154,8.9151 H 1004 a 12,12 135 0 0 12,-12 V 89.199219 a 12,12 45 0 0 -12,-12 z m 0,69.201171 H 790.37695 c -6.62742,0 -8.70862,4.24897 -4.86237,9.64567 7.53398,10.57094 14.44904,21.56962 20.71038,32.94068 3.19655,5.80517 10.97184,10.61287 17.59926,10.61287 l 180.17578,0 a 12,12 135 0 0 12,-12 v -29.19922 a 12,12 45 0 0 -12,-12 z m 0,69.19922 H 831.37305 c -6.62742,0 -9.81305,4.9096 -7.35998,11.06593 3.98891,10.01073 7.49393,20.20757 10.50288,30.55514 1.85042,6.36349 8.51679,11.5801 15.14421,11.5801 H 1004 a 12,12 135 0 0 12,-12 v -29.20117 a 12,12 45 0 0 -12,-12 z m 0,69.20117 H 853.2793 c -6.62742,0 -10.91707,5.26443 -9.84163,11.80365 1.60328,9.74878 2.77581,19.56355 3.51415,29.41566 C 847.44709,332.62862 853.00735,338 859.63477,338 H 1004 a 12,12 135 0 0 12,-12 v -29.19922 a 12,12 45 0 0 -12,-12 z M 1004,354 H 860 a 12,12 135 0 0 -12,12 v 29.19922 a 12,12 45 0 0 12,12 h 144 a 12,12 135 0 0 12,-12 V 366 a 12,12 45 0 0 -12,-12 z m 0,69.19922 H 860 a 12,12 135 0 0 -12,12 v 29.20117 a 12,12 45 0 0 12,12 h 144 a 12,12 135 0 0 12,-12 v -29.20117 a 12,12 45 0 0 -12,-12 z m 0,69.20117 -144,0 a 12,12 135 0 0 -12,12 v 29.19922 a 12,12 45 0 0 12,12 h 144 a 12,12 135 0 0 12,-12 v -29.19922 a 12,12 45 0 0 -12,-12 z m 0,69.19922 H 860 a 12,12 135 0 0 -12,12 v 29.20117 a 12,12 45 0 0 12,12 h 144 a 12,12 135 0 0 12,-12 l 0,-29.20117 a 12,12 45 0 0 -12,-12 z m 0,69.20117 H 860 a 12,12 135 0 0 -12,12 V 672 a 12,12 45 0 0 12,12 h 144 a 12,12 135 0 0 12,-12 v -29.19922 a 12,12 45 0 0 -12,-12 z M 20,684 h 144 a 12,12 135 0 0 12,-12 l 0,-29.19922 a 12,12 45 0 0 -12,-12 H 20 a 12,12 135 0 0 -12,12 V 672 a 12,12 45 0 0 12,12 z m 0,-69.19922 h 144 a 12,12 135 0 0 12,-12 v -29.20117 a 12,12 45 0 0 -12,-12 H 20 a 12,12 135 0 0 -12,12 v 29.20117 a 12,12 45 0 0 12,12 z m 0,-69.20117 h 144 a 12,12 135 0 0 12,-12 l 0,-29.19922 a 12,12 45 0 0 -12,-12 l -144,0 a 12,12 135 0 0 -12,12 v 29.19922 a 12,12 45 0 0 12,12 z m 0,-69.19922 h 144 a 12,12 135 0 0 12,-12 v -29.20117 a 12,12 45 0 0 -12,-12 H 20 a 12,12 135 0 0 -12,12 v 29.20117 a 12,12 45 0 0 12,12 z m 0,-69.20117 h 144 a 12,12 135 0 0 12,-12 V 366 A 12,12 45 0 0 164,354 H 20 A 12,12 135 0 0 8,366 v 29.19922 a 12,12 45 0 0 12,12 z M 20,338 h 145.02344 c 6.62742,0 12.19076,-5.37127 12.68982,-11.97952 0.74409,-9.85293 1.92244,-19.66824 3.53163,-29.41731 1.07926,-6.5386 -3.20731,-11.80239 -9.83473,-11.80239 H 20 a 12,12 135 0 0 -12,12 V 326 a 12,12 45 0 0 12,12 z m 0,-69.19922 h 155.25195 c 6.62742,0 13.29229,-5.21698 15.14089,-11.581 3.00545,-10.3466 6.50682,-20.54266 10.49198,-30.55283 2.45121,-6.15707 -0.73592,-11.06734 -7.36334,-11.06734 H 20 a 12,12 135 0 0 -12,12 v 29.20117 a 12,12 45 0 0 12,12 z m 0,-69.20117 h 180.14844 c 6.62742,0 14.44143,-4.78815 17.68473,-10.56734 6.40921,-11.42048 13.48064,-22.4565 21.17808,-33.05154 3.89519,-5.36148 1.8525,-9.58034 -4.77492,-9.58034 H 20 a 12,12 135 0 0 -12,12 v 29.19922 a 12,12 45 0 0 12,12 z m 0,-69.19922 h 227.90234 c 6.62742,0 15.48547,-4.09127 19.98081,-8.96054 12.38653,-13.41687 25.84623,-25.801722 40.24527,-37.031412 5.22573,-4.075503 4.2197,-7.209219 -2.40772,-7.209219 H 20 a 12,12 135 0 0 -12,12 v 29.201171 a 12,12 45 0 0 12,12 z"
       inkscape:path-effect="#path-effect27-9"
       inkscape:original-d="M 1016,8 H 8 V 61.199219 H 343.82812 A 336,336 0 0 1 512,15 336,336 0 0 1 681.77539,61.199219 H 1016 Z m 0,69.199219 H 706.73633 a 336,336 0 0 1 58.58008,53.201171 H 1016 Z m 0,69.201171 H 778.37695 a 336,336 0 0 1 33.44727,53.19922 H 1016 Z m 0,69.19922 H 819.37305 a 336,336 0 0 1 18.28711,53.20117 H 1016 Z m 0,69.20117 H 841.2793 A 336,336 0 0 1 847.63477,338 H 1016 Z M 1016,354 H 848 v 53.19922 h 168 z m 0,69.19922 H 848 v 53.20117 h 168 z m 0,69.20117 H 848 v 53.19922 h 168 z m 0,69.19922 H 848 v 53.20117 h 168 z m 0,69.20117 H 848 V 684 h 168 z M 8,684 H 176 V 630.80078 H 8 Z M 8,614.80078 H 176 V 561.59961 H 8 Z M 8,545.59961 H 176 V 492.40039 H 8 Z M 8,476.40039 H 176 V 423.19922 H 8 Z M 8,407.19922 H 176 V 354 H 8 Z M 8,338 h 169.02344 a 336,336 0 0 1 6.38672,-53.19922 H 8 Z m 0,-69.19922 h 179.25195 a 336,336 0 0 1 18.26953,-53.20117 H 8 Z m 0,-69.20117 h 204.14844 a 336,336 0 0 1 34.08789,-53.19922 H 8 Z M 8,130.40039 H 259.90234 A 336,336 0 0 1 317.7207,77.199219 H 8 Z" />
    <path
       id="path7"
       style="fill:none;fill-opacity:0.1;stroke:#da6d96;stroke-width:2;stroke-linecap:round;stroke-linejoin:round;stroke-opacity:1"
       d="M 1004,8 H 20 A 12,12 135 0 0 8,20 v 29.199219 a 12,12 45 0 0 12,12 h 311.82812 c 6.62742,0 16.62421,-2.739277 22.45606,-5.8869 44.9021,-24.235009 94.73837,-37.925743 145.71975,-40.031299 6.62142,-0.273468 17.3707,-0.299257 23.99335,-0.05757 51.53153,1.880626 101.94297,15.59857 147.32188,40.089176 5.83194,3.147449 15.82881,5.886588 22.45623,5.886588 H 1004 a 12,12 135 0 0 12,-12 V 20 A 12,12 45 0 0 1004,8 Z m 0,69.199219 H 718.73633 c -6.62742,0 -7.6105,3.101492 -2.35492,7.138423 14.63121,11.238551 28.31198,23.663138 40.90346,37.147648 4.52291,4.84368 13.40412,8.9151 20.03154,8.9151 H 1004 a 12,12 135 0 0 12,-12 V 89.199219 a 12,12 45 0 0 -12,-12 z m 0,69.201171 H 790.37695 c -6.62742,0 -8.70862,4.24897 -4.86237,9.64567 7.53398,10.57094 14.44904,21.56962 20.71038,32.94068 3.19655,5.80517 10.97184,10.61287 17.59926,10.61287 l 180.17578,0 a 12,12 135 0 0 12,-12 v -29.19922 a 12,12 45 0 0 -12,-12 z m 0,69.19922 H 831.37305 c -6.62742,0 -9.81305,4.9096 -7.35998,11.06593 3.98891,10.01073 7.49393,20.20757 10.50288,30.55514 1.85042,6.36349 8.51679,11.5801 15.14421,11.5801 H 1004 a 12,12 135 0 0 12,-12 v -29.20117 a 12,12 45 0 0 -12,-12 z m 0,69.20117 H 853.2793 c -6.62742,0 -10.91707,5.26443 -9.84163,11.80365 1.60328,9.74878 2.77581,19.56355 3.51415,29.41566 C 847.44709,332.62862 853.00735,338 859.63477,338 H 1004 a 12,12 135 0 0 12,-12 v -29.19922 a 12,12 45 0 0 -12,-12 z M 1004,354 H 860 a 12,12 135 0 0 -12,12 v 29.19922 a 12,12 45 0 0 12,12 h 144 a 12,12 135 0 0 12,-12 V 366 a 12,12 45 0 0 -12,-12 z m 0,69.19922 H 860 a 12,12 135 0 0 -12,12 v 29.20117 a 12,12 45 0 0 12,12 h 144 a 12,12 135 0 0 12,-12 v -29.20117 a 12,12 45 0 0 -12,-12 z m 0,69.20117 -144,0 a 12,12 135 0 0 -12,12 v 29.19922 a 12,12 45 0 0 12,12 h 144 a 12,12 135 0 0 12,-12 v -29.19922 a 12,12 45 0 0 -12,-12 z m 0,69.19922 H 860 a 12,12 135 0 0 -12,12 v 29.20117 a 12,12 45 0 0 12,12 h 144 a 12,12 135 0 0 12,-12 l 0,-29.20117 a 12,12 45 0 0 -12,-12 z m 0,69.20117 H 860 a 12,12 135 0 0 -12,12 V 672 a 12,12 45 0 0 12,12 h 144 a 12,12 135 0 0 12,-12 v -29.19922 a 12,12 45 0 0 -12,-12 z M 20,684 h 144 a 12,12 135 0 0 12,-12 l 0,-29.19922 a 12,12 45 0 0 -12,-12 H 20 a 12,12 135 0 0 -12,12 V 672 a 12,12 45 0 0 12,12 z m 0,-69.19922 h 144 a 12,12 135 0 0 12,-12 v -29.20117 a 12,12 45 0 0 -12,-12 H 20 a 12,12 135 0 0 -12,12 v 29.20117 a 12,12 45 0 0 12,12 z m 0,-69.20117 h 144 a 12,12 135 0 0 12,-12 l 0,-29.19922 a 12,12 45 0 0 -12,-12 l -144,0 a 12,12 135 0 0 -12,12 v 29.19922 a 12,12 45 0 0 12,12 z m 0,-69.19922 h 144 a 12,12 135 0 0 12,-12 v -29.20117 a 12,12 45 0 0 -12,-12 H 20 a 12,12 135 0 0 -12,12 v 29.20117 a 12,12 45 0 0 12,12 z m 0,-69.20117 h 144 a 12,12 135 0 0 12,-12 V 366 A 12,12 45 0 0 164,354 H 20 A 12,12 135 0 0 8,366 v 29.19922 a 12,12 45 0 0 12,12 z M 20,338 h 145.02344 c 6.62742,0 12.19076,-5.37127 12.68982,-11.97952 0.74409,-9.85293 1.92244,-19.66824 3.53163,-29.41731 1.07926,-6.5386 -3.20731,-11.80239 -9.83473,-11.80239 H 20 a 12,12 135 0 0 -12,12 V 326 a 12,12 45 0 0 12,12 z m 0,-69.19922 h 155.25195 c 6.62742,0 13.29229,-5.21698 15.14089,-11.581 3.00545,-10.3466 6.50682,-20.54266 10.49198,-30.55283 2.45121,-6.15707 -0.73592,-11.06734 -7.36334,-11.06734 H 20 a 12,12 135 0 0 -12,12 v 29.20117 a 12,12 45 0 0 12,12 z m 0,-69.20117 h 180.14844 c 6.62742,0 14.44143,-4.78815 17.68473,-10.56734 6.40921,-11.42048 13.48064,-22.4565 21.17808,-33.05154 3.89519,-5.36148 1.8525,-9.58034 -4.77492,-9.58034 H 20 a 12,12 135 0 0 -12,12 v 29.19922 a 12,12 45 0 0 12,12 z m 0,-69.19922 h 227.90234 c 6.62742,0 15.48547,-4.09127 19.98081,-8.96054 12.38653,-13.41687 25.84623,-25.801722 40.24527,-37.031412 5.22573,-4.075503 4.2197,-7.209219 -2.40772,-7.209219 H 20 a 12,12 135 0 0 -12,12 v 29.201171 a 12,12 45 0 0 12,12 z"
       inkscape:path-effect="#path-effect27"
       inkscape:original-d="M 1016,8 H 8 V 61.199219 H 343.82812 A 336,336 0 0 1 512,15 336,336 0 0 1 681.77539,61.199219 H 1016 Z m 0,69.199219 H 706.73633 a 336,336 0 0 1 58.58008,53.201171 H 1016 Z m 0,69.201171 H 778.37695 a 336,336 0 0 1 33.44727,53.19922 H 1016 Z m 0,69.19922 H 819.37305 a 336,336 0 0 1 18.28711,53.20117 H 1016 Z m 0,69.20117 H 841.2793 A 336,336 0 0 1 847.63477,338 H 1016 Z M 1016,354 H 848 v 53.19922 h 168 z m 0,69.19922 H 848 v 53.20117 h 168 z m 0,69.20117 H 848 v 53.19922 h 168 z m 0,69.19922 H 848 v 53.20117 h 168 z m 0,69.20117 H 848 V 684 h 168 z M 8,684 H 176 V 630.80078 H 8 Z M 8,614.80078 H 176 V 561.59961 H 8 Z M 8,545.59961 H 176 V 492.40039 H 8 Z M 8,476.40039 H 176 V 423.19922 H 8 Z M 8,407.19922 H 176 V 354 H 8 Z M 8,338 h 169.02344 a 336,336 0 0 1 6.38672,-53.19922 H 8 Z m 0,-69.19922 h 179.25195 a 336,336 0 0 1 18.26953,-53.20117 H 8 Z m 0,-69.20117 h 204.14844 a 336,336 0 0 1 34.08789,-53.19922 H 8 Z M 8,130.40039 H 259.90234 A 336,336 0 0 1 317.7207,77.199219 H 8 Z" />
  </g>
</svg>
