<?xml version="1.0" encoding="UTF-8" standalone="no"?>
<!-- Created with Inkscape (http://www.inkscape.org/) -->

<svg
   width="192"
   height="192"
   viewBox="0 0 192 192.00001"
   version="1.1"
   id="svg1"
   xml:space="preserve"
   inkscape:version="1.3.2 (091e20e, 2023-11-25, custom)"
   sodipodi:docname="spinner-warning.svg"
   xmlns:inkscape="http://www.inkscape.org/namespaces/inkscape"
   xmlns:sodipodi="http://sodipodi.sourceforge.net/DTD/sodipodi-0.dtd"
   xmlns="http://www.w3.org/2000/svg"
   xmlns:svg="http://www.w3.org/2000/svg"><sodipodi:namedview
     id="namedview1"
     pagecolor="#505050"
     bordercolor="#eeeeee"
     borderopacity="1"
     inkscape:showpageshadow="0"
     inkscape:pageopacity="0"
     inkscape:pagecheckerboard="0"
     inkscape:deskcolor="#505050"
     inkscape:document-units="px"
     inkscape:zoom="1"
     inkscape:cx="67"
     inkscape:cy="41.5"
     inkscape:window-width="1920"
     inkscape:window-height="1009"
     inkscape:window-x="-8"
     inkscape:window-y="-8"
     inkscape:window-maximized="1"
     inkscape:current-layer="layer1" /><defs
     id="defs1"><linearGradient
       id="linearGradient76"
       inkscape:label="Great"><stop
         style="stop-color:#ffb0ca;stop-opacity:1;"
         offset="0"
         id="stop2" /><stop
         style="stop-color:#c24e7e;stop-opacity:1;"
         offset="1"
         id="stop3" /></linearGradient><linearGradient
       id="linearGradient4"
       inkscape:label="Great"
       gradientTransform="scale(0.99268611,1.0073678)"
       x1="606.50211"
       y1="539.92281"
       x2="633.40662"
       y2="539.92281"
       gradientUnits="userSpaceOnUse"><stop
         style="stop-color:#ffb0ca;stop-opacity:1;"
         offset="0"
         id="stop1" /><stop
         style="stop-color:#c24e7e;stop-opacity:1;"
         offset="1"
         id="stop4" /></linearGradient></defs><g
     inkscape:label="Layer 1"
     inkscape:groupmode="layer"
     id="layer1"><circle
       style="fill:#e2e2e2;stroke-width:4;stroke-linejoin:round;stroke:#000000;stroke-opacity:1;stroke-dasharray:none;fill-opacity:1"
       id="path1"
       cx="96"
       cy="96"
       r="80" /><circle
       style="fill:#f39ed2;fill-opacity:1;stroke:none;stroke-width:4;stroke-linejoin:round;stroke-dasharray:none;stroke-opacity:1"
       id="path2"
       cx="96"
       cy="96"
       r="65" /><g
       id="g122"
       style="fill:none;stroke:#000000;stroke-opacity:1;stroke-width:1;stroke-dasharray:none"
       inkscape:transform-center-x="-5.0000001e-06"
       inkscape:transform-center-y="-1.49819"
       inkscape:label="300"
       transform="matrix(2,0,0,2,-1151.0703,-991.97656)"><path
         d="m 620,516.00001 c -3,2.99999 -6,7.99999 -6,15 10e-6,5.8434 3.79473,10.73677 9.53516,10.98827 -0.84948,-6.0108 3.22267,-11.50144 9.12109,-13.41797 0.3956,-0.12853 0.78606,-0.24121 1.17578,-0.34765 C 633.16804,522.66316 630.58641,518.5864 628,516 c -2,2.99999 -3,6 -4,10 -1,-4.00002 -2.00001,-7 -4,-9.99999 z"
         style="fill:none;stroke:#000000;stroke-width:1;stroke-linecap:round;stroke-linejoin:round;stroke-opacity:1;paint-order:stroke fill markers;stroke-dasharray:none"
         id="path115"
         inkscape:transform-center-x="0.083985"
         inkscape:transform-center-y="-15.00586" /><path
         d="m 649.39351,531.5433 c -3.78022,-1.92612 -9.46256,-3.2342 -16.11995,-1.07109 -5.55741,1.80572 -9.03864,6.92685 -7.50394,12.46405 5.45411,-2.66535 11.93438,-0.4892 15.57982,4.52829 0.24449,0.33652 0.47234,0.67302 0.69397,1.0108 5.08221,-2.34947 8.16167,-6.06455 9.82224,-9.3236 -3.4712,-0.97506 -6.63339,-0.99907 -10.74663,-0.71406 3.49523,-2.18713 6.03936,-4.06523 8.27449,-6.89439 z"
         style="fill:none;stroke:#000000;stroke-width:1;stroke-linecap:round;stroke-linejoin:round;stroke-opacity:1;paint-order:stroke fill markers;stroke-dasharray:none"
         id="path115-5"
         inkscape:transform-center-x="-14.635896"
         inkscape:transform-center-y="-5.0862323" /><path
         d="m 643.69405,564.30133 c 0.6637,-4.19041 0.15182,-9.99885 -3.96267,-15.66197 -3.43468,-4.72741 -9.38092,-6.45574 -14.17286,-3.28507 4.22031,4.36353 4.15318,11.1991 0.50777,16.21661 -0.2445,0.33652 -0.49412,0.6572 -0.74688,0.97236 3.80497,4.10744 8.28982,5.88816 11.90251,6.46036 -0.14532,-3.60262 -1.09966,-6.61746 -2.64178,-10.44131 3.16017,2.6483 5.73253,4.48754 9.11391,5.73902 z"
         style="fill:none;stroke:#000000;stroke-width:1;stroke-linecap:round;stroke-linejoin:round;stroke-opacity:1;paint-order:stroke fill markers;stroke-dasharray:none"
         id="path115-1"
         inkscape:transform-center-x="-10.627666"
         inkscape:transform-center-y="12.373756" /><path
         d="m 610.77808,569.00361 c 4.19041,-0.66369 9.55639,-2.94542 13.67089,-8.60854 3.43466,-4.72742 3.24091,-10.91672 -1.25537,-14.49433 -2.84581,5.36216 -9.36757,7.41062 -15.266,5.49413 -0.3956,-0.12855 -0.77773,-0.26685 -1.15557,-0.40985 -2.73061,4.88801 -3.03828,9.70362 -2.46609,13.31632 3.38139,-1.25148 5.95377,-3.09075 9.11392,-5.73903 -1.54213,3.82387 -2.49645,6.83869 -2.64178,10.4413 z"
         style="fill:none;stroke:#000000;stroke-width:1;stroke-linecap:round;stroke-linejoin:round;stroke-opacity:1;paint-order:stroke fill markers;stroke-dasharray:none"
         id="path115-6"
         inkscape:transform-center-x="8.5572993"
         inkscape:transform-center-y="13.452175" /><path
         d="m 596.13436,539.15175 c 1.92611,3.78022 5.75434,8.17848 12.41174,10.3416 5.55741,1.8057 11.38392,-0.29116 13.397,-5.67292 -5.97912,-1.04953 -9.94266,-6.61908 -9.94268,-12.82105 1e-5,-0.41596 0.0135,-0.82213 0.0327,-1.22566 -5.49258,-1.08649 -10.16758,0.109 -13.42664,1.76958 2.23513,2.82916 4.77929,4.70727 8.2745,6.89439 -4.11326,-0.28501 -7.27543,-0.26099 -10.74662,0.71406 z"
         style="fill:none;stroke:#000000;stroke-width:1;stroke-linecap:round;stroke-linejoin:round;stroke-opacity:1;paint-order:stroke fill markers;stroke-dasharray:none"
         id="path115-9"
         inkscape:transform-center-x="14.96127"
         inkscape:transform-center-y="-4.257635" /></g></g></svg>
