<?xml version="1.0" encoding="UTF-8" standalone="no"?>
<!-- Created with Inkscape (http://www.inkscape.org/) -->

<svg
   width="128"
   height="128"
   viewBox="0 0 128 128.00001"
   version="1.1"
   id="svg1"
   inkscape:version="1.4.2 (ebf0e940d0, 2025-05-08)"
   sodipodi:docname="spinner-warning.svg"
   xml:space="preserve"
   xmlns:inkscape="http://www.inkscape.org/namespaces/inkscape"
   xmlns:sodipodi="http://sodipodi.sourceforge.net/DTD/sodipodi-0.dtd"
   xmlns="http://www.w3.org/2000/svg"
   xmlns:svg="http://www.w3.org/2000/svg"><sodipodi:namedview
     id="namedview1"
     pagecolor="#505050"
     bordercolor="#eeeeee"
     borderopacity="1"
     inkscape:showpageshadow="0"
     inkscape:pageopacity="0"
     inkscape:pagecheckerboard="0"
     inkscape:deskcolor="#505050"
     inkscape:document-units="px"
     inkscape:zoom="2.8284271"
     inkscape:cx="64.346717"
     inkscape:cy="44.017397"
     inkscape:window-width="1394"
     inkscape:window-height="1000"
     inkscape:window-x="0"
     inkscape:window-y="0"
     inkscape:window-maximized="0"
     inkscape:current-layer="layer1" /><defs
     id="defs1" /><g
     inkscape:label="Layer 1"
     inkscape:groupmode="layer"
     id="layer1"><circle
       style="fill:#f18db0;fill-opacity:1;stroke:none;stroke-width:4;stroke-linejoin:round;stroke-dasharray:none;stroke-opacity:1;paint-order:normal"
       id="path5"
       cx="64"
       cy="64"
       r="54" /><g
       inkscape:label="Layer 1"
       id="layer1-5"><path
         d="M 64,7 A 57,57 0 0 0 7,64 57,57 0 0 0 64,121 57,57 0 0 0 121,64 57,57 0 0 0 64,7 Z m 0,10 A 47,47 0 0 1 111,64 47,47 0 0 1 64,111 47,47 0 0 1 17,64 47,47 0 0 1 64,17 Z"
         style="fill:#e2e2e2;stroke-width:4;stroke-linejoin:round"
         id="path4" /><circle
         style="fill:none;fill-opacity:1;stroke:#000000;stroke-width:4;stroke-linejoin:round;stroke-dasharray:none;stroke-opacity:1;paint-order:normal"
         id="path1-5"
         cx="64"
         cy="64"
         r="57" /></g></g></svg>
