<?xml version="1.0" encoding="UTF-8" standalone="no"?>
<!-- Created with Inkscape (http://www.inkscape.org/) -->

<svg
   width="128"
   height="128"
   viewBox="0 0 128 128.00001"
   version="1.1"
   id="svg1"
   inkscape:version="1.3.2 (091e20e, 2023-11-25, custom)"
   sodipodi:docname="taiko-hit100k.svg"
   xmlns:inkscape="http://www.inkscape.org/namespaces/inkscape"
   xmlns:sodipodi="http://sodipodi.sourceforge.net/DTD/sodipodi-0.dtd"
   xmlns="http://www.w3.org/2000/svg"
   xmlns:svg="http://www.w3.org/2000/svg">
  <sodipodi:namedview
     id="namedview1"
     pagecolor="#505050"
     bordercolor="#eeeeee"
     borderopacity="1"
     inkscape:showpageshadow="0"
     inkscape:pageopacity="0"
     inkscape:pagecheckerboard="0"
     inkscape:deskcolor="#505050"
     inkscape:document-units="px"
     inkscape:zoom="1"
     inkscape:cx="72"
     inkscape:cy="122"
     inkscape:window-width="1394"
     inkscape:window-height="1000"
     inkscape:window-x="414"
     inkscape:window-y="17"
     inkscape:window-maximized="0"
     inkscape:current-layer="layer1">
    <sodipodi:guide
       position="64.000002,40.000002"
       orientation="0,1"
       id="guide3"
       inkscape:locked="false"
       inkscape:label=""
       inkscape:color="rgb(0,134,229)" />
    <sodipodi:guide
       position="64.000002,0"
       orientation="-1,0"
       id="guide4"
       inkscape:locked="false"
       inkscape:label=""
       inkscape:color="rgb(0,134,229)" />
  </sodipodi:namedview>
  <defs
     id="defs1">
    <inkscape:path-effect
       effect="copy_rotate"
       starting_point="228,384"
       origin="128,384"
       id="path-effect9"
       is_visible="true"
       lpeversion="1.2"
       lpesatellites=""
       method="normal"
       num_copies="24"
       starting_angle="0"
       rotation_angle="15"
       gap="-0.01"
       copies_to_360="true"
       mirror_copies="false"
       split_items="false"
       link_styles="false" />
    <inkscape:path-effect
       effect="copy_rotate"
       starting_point="228,384"
       origin="128,384"
       id="path-effect9-6"
       is_visible="true"
       lpeversion="1.2"
       lpesatellites=""
       method="normal"
       num_copies="24"
       starting_angle="0"
       rotation_angle="15"
       gap="-0.01"
       copies_to_360="true"
       mirror_copies="false"
       split_items="false"
       link_styles="false" />
  </defs>
  <g
     inkscape:label="Layer 1"
     inkscape:groupmode="layer"
     id="layer1">
    <g
       id="g8"
       inkscape:transform-center-y="8.2999993e-06"
       style="mix-blend-mode:normal;fill:#dddddd;fill-opacity:1"
       transform="matrix(0.49999995,0,0,0.49999995,5.9000001e-6,-127.99997)"
       inkscape:path-effect="#path-effect9-6">
      <path
         style="fill:#dddddd;fill-opacity:1;stroke-width:3.99874;stroke-linejoin:round;paint-order:stroke fill markers"
         d="m 128,343.99999 -8,-40 8,-8 8,8 z m -10.35276,1.36297 -18.080173,-36.56648 5.656853,-9.79796 9.79796,5.65685 z M 108,349.35898 81.071792,318.71796 l 2.928203,-10.9282 10.928203,2.9282 z M 99.715722,355.71572 65.774596,333.0883 V 321.7746 H 77.088305 Z M 93.358975,364 54.717959,350.9282 51.789756,340 62.717959,337.07179 Z m -3.996018,9.64724 -40.707585,-2.62536 -5.656854,-9.79796 9.797959,-5.65685 z M 87.99999,384 l -40,8 -8,-8 8,-8 z m 1.362967,10.35276 -36.56648,18.08017 -9.797959,-5.65685 5.656854,-9.79796 z M 93.358975,404 62.717959,430.92821 51.789756,428 54.717959,417.0718 Z m 6.356747,8.28428 -22.627417,33.94112 H 65.774596 l 0,-11.3137 z M 108,418.64102 l -13.071802,38.64102 -10.928203,2.9282 -2.928203,-10.9282 z m 9.64724,3.99602 -2.62536,40.70759 -9.79796,5.65685 -5.656853,-9.79796 z M 128,424.00001 l 8,40 -8,8 -8,-8 z m 10.35276,-1.36297 18.08017,36.56648 -5.65685,9.79796 -9.79796,-5.65685 z m 9.64725,-3.99602 26.9282,30.64102 -2.9282,10.9282 -10.92821,-2.9282 z m 8.28427,-6.35674 33.94112,22.62742 0,11.3137 H 178.9117 Z M 162.64102,404 l 38.64102,13.0718 2.9282,10.9282 -10.9282,2.92821 z m 3.99602,-9.64724 40.70759,2.62536 5.65685,9.79796 -9.79796,5.65685 z M 168.00001,384 l 40,-8 8,8 -8,8 z m -1.36297,-10.35276 36.56648,-18.08017 9.79796,5.65685 -5.65685,9.79796 z m -3.99602,-9.64725 30.64102,-26.9282 10.9282,2.9282 -2.9282,10.92821 z m -6.35674,-8.28427 22.62742,-33.94112 11.3137,0 v 11.3137 z m -8.28427,-6.35674 13.07179,-38.64102 10.92821,-2.9282 2.9282,10.9282 z m -9.64725,-3.99602 2.62536,-40.70759 9.79796,-5.65685 5.65685,9.79796 z"
         id="path7"
         inkscape:original-d="m 128,343.99999 -8,-40 8,-8 8,8 z"
         sodipodi:nodetypes="ccccc" />
      <path
         style="fill:#dddddd;fill-opacity:1;stroke-width:3.99874;stroke-linejoin:round;paint-order:stroke fill markers"
         d="m 128,291.99999 -8,-8 8,-8 8,8 z m -23.81135,3.13482 -9.797964,-5.65685 5.656854,-9.79796 9.79796,5.65686 z m -22.188655,9.19084 -10.928203,-2.9282 2.928203,-10.9282 10.928203,2.9282 z m -19.053826,14.62052 -11.313708,0 V 307.63246 H 62.946169 Z M 48.325654,338 37.397451,340.9282 34.469248,330 45.397451,327.07179 Z m -9.19084,22.18865 -9.797959,5.65685 -5.656854,-9.79796 9.797959,-5.65685 z M 35.99999,384 l -8,8 -8,-8 8,-8 z m 3.134824,23.81135 -5.656854,9.79796 -9.797959,-5.65685 5.656854,-9.79796 z M 48.325654,430 45.397451,440.92821 34.469248,438 37.397451,427.0718 Z m 14.620515,19.05383 0,11.31371 H 51.632461 l 0,-11.31371 z m 19.053826,14.62052 2.928203,10.9282 -10.928203,2.9282 -2.928203,-10.9282 z m 22.188655,9.19084 5.65685,9.79795 -9.79796,5.65686 -5.656854,-9.79796 z M 128,476.00001 l 8,8 -8,8 -8,-8 z m 23.81135,-3.13482 9.79796,5.65685 -5.65685,9.79796 -9.79796,-5.65686 z m 22.18866,-9.19084 10.9282,2.9282 -2.9282,10.9282 -10.92821,-2.9282 z m 19.05382,-14.62052 h 11.31371 l 0,11.31371 H 193.05383 Z M 207.67435,430 l 10.9282,-2.9282 2.9282,10.92821 -10.9282,2.9282 z m 9.19084,-22.18865 9.79795,-5.65685 5.65686,9.79796 -9.79796,5.65685 z M 220.00001,384 l 8,-8 8,8 -8,8 z m -3.13482,-23.81135 5.65685,-9.79796 9.79796,5.65685 -5.65686,9.79796 z m -9.19084,-22.18866 2.9282,-10.9282 10.9282,2.9282 -2.9282,10.92821 z m -14.62052,-19.05382 0,-11.31371 h 11.31371 v 11.31371 z m -19.05382,-14.62052 -2.92821,-10.9282 10.92821,-2.9282 2.9282,10.9282 z m -22.18866,-9.19084 -5.65685,-9.79795 9.79796,-5.65686 5.65685,9.79796 z"
         id="path8"
         inkscape:original-d="m 128,291.99999 -8,-8 8,-8 8,8 z"
         sodipodi:nodetypes="ccccc" />
    </g>
    <text
       xml:space="preserve"
       style="font-size:64px;font-family:'Potta One';-inkscape-font-specification:'Potta One';text-align:center;letter-spacing:0px;text-anchor:middle;fill:#dddddd;fill-opacity:1;stroke:#000000;stroke-width:8;stroke-linejoin:round;paint-order:stroke fill markers"
       x="64"
       y="90"
       id="text1"><tspan
         sodipodi:role="line"
         id="tspan1"
         x="64"
         y="90">可</tspan></text>
  </g>
</svg>
