<?xml version="1.0" encoding="UTF-8" standalone="no"?>
<!-- Created with Inkscape (http://www.inkscape.org/) -->

<svg
   width="128"
   height="128"
   viewBox="0 0 128 128.00001"
   version="1.1"
   id="svg1"
   inkscape:version="1.3.2 (091e20e, 2023-11-25, custom)"
   sodipodi:docname="taikohitcircle.svg"
   xmlns:inkscape="http://www.inkscape.org/namespaces/inkscape"
   xmlns:sodipodi="http://sodipodi.sourceforge.net/DTD/sodipodi-0.dtd"
   xmlns="http://www.w3.org/2000/svg"
   xmlns:svg="http://www.w3.org/2000/svg">
  <sodipodi:namedview
     id="namedview1"
     pagecolor="#505050"
     bordercolor="#eeeeee"
     borderopacity="1"
     inkscape:showpageshadow="0"
     inkscape:pageopacity="0"
     inkscape:pagecheckerboard="0"
     inkscape:deskcolor="#505050"
     inkscape:document-units="px"
     inkscape:zoom="2.8284271"
     inkscape:cx="44.194174"
     inkscape:cy="34.471456"
     inkscape:window-width="1920"
     inkscape:window-height="1009"
     inkscape:window-x="-8"
     inkscape:window-y="-8"
     inkscape:window-maximized="1"
     inkscape:current-layer="layer1" />
  <defs
     id="defs1" />
  <g
     inkscape:label="Layer 1"
     inkscape:groupmode="layer"
     id="layer1">
    <path
       d="M 64,5 A 59,59 0 0 0 5,64 59,59 0 0 0 64,123 59,59 0 0 0 123,64 59,59 0 0 0 64,5 Z m 0,18 A 41,41 0 0 1 105,64 41,41 0 0 1 64,105 41,41 0 0 1 23,64 41,41 0 0 1 64,23 Z"
       style="stroke-width:6;stroke-linecap:round;stroke-linejoin:round"
       id="path5" />
    <path
       d="M 64,11 A 53,53 0 0 0 11,64 53,53 0 0 0 64,117 53,53 0 0 0 117,64 53,53 0 0 0 64,11 Z m 0,12 A 41,41 0 0 1 105,64 41,41 0 0 1 64,105 41,41 0 0 1 23,64 41,41 0 0 1 64,23 Z"
       style="fill:#e2e2e2;stroke-width:6;stroke-linecap:round;stroke-linejoin:round"
       id="path4" />
  </g>
</svg>
