<?xml version="1.0" encoding="UTF-8" standalone="no"?>
<!-- Created with Inkscape (http://www.inkscape.org/) -->

<svg
   width="180"
   height="200"
   viewBox="0 0 180 200.00001"
   version="1.1"
   id="svg1"
   inkscape:version="1.3.2 (091e20e, 2023-11-25, custom)"
   sodipodi:docname="taiko-bar-left.svg"
   xmlns:inkscape="http://www.inkscape.org/namespaces/inkscape"
   xmlns:sodipodi="http://sodipodi.sourceforge.net/DTD/sodipodi-0.dtd"
   xmlns:xlink="http://www.w3.org/1999/xlink"
   xmlns="http://www.w3.org/2000/svg"
   xmlns:svg="http://www.w3.org/2000/svg">
  <sodipodi:namedview
     id="namedview1"
     pagecolor="#505050"
     bordercolor="#eeeeee"
     borderopacity="1"
     inkscape:showpageshadow="0"
     inkscape:pageopacity="0"
     inkscape:pagecheckerboard="0"
     inkscape:deskcolor="#505050"
     inkscape:document-units="px"
     inkscape:zoom="4"
     inkscape:cx="98.5"
     inkscape:cy="67.375"
     inkscape:window-width="1920"
     inkscape:window-height="1009"
     inkscape:window-x="-8"
     inkscape:window-y="-8"
     inkscape:window-maximized="1"
     inkscape:current-layer="layer2"
     showgrid="true">
    <inkscape:grid
       id="grid7"
       units="px"
       originx="0"
       originy="0"
       spacingx="1"
       spacingy="1"
       empcolor="#0099e5"
       empopacity="0.30196078"
       color="#0099e5"
       opacity="0.14901961"
       empspacing="5"
       dotted="false"
       gridanglex="30"
       gridanglez="30"
       visible="true" />
  </sodipodi:namedview>
  <defs
     id="defs1">
    <linearGradient
       id="linearGradient6"
       inkscape:collect="always">
      <stop
         style="stop-color:#e6a8bc;stop-opacity:1;"
         offset="0"
         id="stop6" />
      <stop
         style="stop-color:#e46598;stop-opacity:1;"
         offset="1"
         id="stop7" />
    </linearGradient>
    <linearGradient
       inkscape:collect="always"
       xlink:href="#linearGradient6"
       id="linearGradient7"
       x1="0"
       y1="20"
       x2="0"
       y2="180"
       gradientUnits="userSpaceOnUse" />
  </defs>
  <g
     inkscape:label="Background"
     inkscape:groupmode="layer"
     id="layer1">
    <rect
       style="fill:#000000;fill-opacity:1;stroke:none;stroke-width:3.999;stroke-linejoin:round;stroke-dasharray:none;stroke-opacity:1;paint-order:stroke fill markers"
       id="rect5"
       width="180"
       height="168"
       x="0"
       y="16" />
    <rect
       style="fill:url(#linearGradient7);fill-opacity:1;stroke:none;stroke-width:4.00681;stroke-linejoin:round;stroke-dasharray:none;paint-order:stroke fill markers"
       id="rect1"
       width="176"
       height="160"
       x="0"
       y="20" />
  </g>
  <g
     inkscape:groupmode="layer"
     id="layer2"
     inkscape:label="Drum">
    <path
       style="fill:#a73727;fill-opacity:1;stroke:none;stroke-width:4;stroke-linejoin:round;stroke-dasharray:none;stroke-opacity:1;paint-order:normal"
       d="M 15,99.999995 C 15,89.999998 17,70.999996 24,52.999997 31,34.999998 53,9.9999995 90,9.9999995 c 37,0 59,24.9999985 66,42.9999975 7,17.999999 9,36.999999 9,46.999998 0,9.999995 -2,28.999995 -9,46.999995 -7,18 -29,43 -66,43 -37,0 -59,-25 -66,-43 -7,-18 -9,-37 -9,-46.999995 z"
       id="path33"
       sodipodi:nodetypes="zzzzszzzz" />
    <ellipse
       style="fill:#cec5c1;fill-opacity:1;stroke:#000000;stroke-width:2;stroke-linejoin:round;stroke-dasharray:none;stroke-opacity:1;paint-order:normal"
       id="path7-2"
       cx="90"
       cy="85"
       ry="67.785713"
       rx="73" />
    <ellipse
       style="fill:#cec5c1;fill-opacity:1;stroke:#000000;stroke-width:2;stroke-linejoin:round;stroke-dasharray:none;stroke-opacity:1;paint-order:normal"
       id="path7"
       cx="90"
       cy="75"
       rx="70"
       ry="65" />
    <path
       style="fill:none;fill-opacity:1;stroke:#000000;stroke-width:4;stroke-linejoin:round;stroke-dasharray:none;stroke-opacity:1;paint-order:normal"
       d="m 15,100 c 0,-10 2,-29 9,-47 7,-18 29,-43 66,-43 37,0 59,25 66,43 7,18 9,37 9,47 0,9.99999 -2,28.99999 -9,46.99999 -7,18 -29,43 -66,43 -37,0 -59,-25 -66,-43 -7,-18 -9,-37 -9,-46.99999 z"
       id="path33-6"
       sodipodi:nodetypes="zzzzszzzz" />
  </g>
</svg>
