<?xml version="1.0" encoding="UTF-8" standalone="no"?>
<!-- Created with Inkscape (http://www.inkscape.org/) -->

<svg
   width="128"
   height="128"
   viewBox="0 0 196.92308 196.92308"
   version="1.1"
   id="svg1"
   inkscape:version="1.3.2 (091e20e, 2023-11-25, custom)"
   sodipodi:docname="taiko-bigcircleoverlay.svg"
   xmlns:inkscape="http://www.inkscape.org/namespaces/inkscape"
   xmlns:sodipodi="http://sodipodi.sourceforge.net/DTD/sodipodi-0.dtd"
   xmlns="http://www.w3.org/2000/svg"
   xmlns:svg="http://www.w3.org/2000/svg">
  <sodipodi:namedview
     id="namedview1"
     pagecolor="#505050"
     bordercolor="#eeeeee"
     borderopacity="1"
     inkscape:showpageshadow="0"
     inkscape:pageopacity="0"
     inkscape:pagecheckerboard="0"
     inkscape:deskcolor="#505050"
     inkscape:document-units="px"
     inkscape:zoom="4"
     inkscape:cx="45.5"
     inkscape:cy="62.25"
     inkscape:window-width="1394"
     inkscape:window-height="1000"
     inkscape:window-x="90"
     inkscape:window-y="28"
     inkscape:window-maximized="0"
     inkscape:current-layer="layer1" />
  <defs
     id="defs1" />
  <g
     inkscape:label="Layer 1"
     inkscape:groupmode="layer"
     id="layer1">
    <path
       d="M 98.461538,9.6935096 A 88.769234,88.769234 0 0 0 9.6935096,98.461538 88.769234,88.769234 0 0 0 98.461538,187.22957 88.769234,88.769234 0 0 0 187.22957,98.461538 88.769234,88.769234 0 0 0 98.461538,9.6935096 Z m 0,10.0000004 A 78.769234,78.769234 0 0 1 177.22957,98.461538 78.769234,78.769234 0 0 1 98.461538,177.22957 78.769234,78.769234 0 0 1 19.69351,98.461538 78.769234,78.769234 0 0 1 98.461538,19.69351 Z"
       style="fill:#e2e2e2;stroke-width:4;stroke-linejoin:round"
       id="path1" />
    <circle
       style="fill:none;fill-opacity:1;stroke:#000000;stroke-width:4;stroke-linejoin:round;stroke-dasharray:none;stroke-opacity:1;paint-order:normal"
       id="path1-5"
       cx="98.46154"
       cy="98.46154"
       r="88.769234" />
  </g>
</svg>
