<?xml version="1.0" encoding="UTF-8" standalone="no"?>
<!-- Created with Inkscape (http://www.inkscape.org/) -->

<svg
   width="24"
   height="24"
   viewBox="0 0 24 24"
   version="1.1"
   id="svg1"
   inkscape:version="1.3.2 (091e20e, 2023-11-25, custom)"
   sodipodi:docname="hardrock.svg"
   xmlns:inkscape="http://www.inkscape.org/namespaces/inkscape"
   xmlns:sodipodi="http://sodipodi.sourceforge.net/DTD/sodipodi-0.dtd"
   xmlns="http://www.w3.org/2000/svg"
   xmlns:svg="http://www.w3.org/2000/svg">
  <sodipodi:namedview
     id="namedview1"
     pagecolor="#ffffff"
     bordercolor="#000000"
     borderopacity="0.25"
     inkscape:showpageshadow="2"
     inkscape:pageopacity="0.0"
     inkscape:pagecheckerboard="0"
     inkscape:deskcolor="#d1d1d1"
     inkscape:document-units="px"
     showgrid="true"
     inkscape:zoom="8"
     inkscape:cx="15.3125"
     inkscape:cy="15.5"
     inkscape:window-width="1730"
     inkscape:window-height="930"
     inkscape:window-x="118"
     inkscape:window-y="71"
     inkscape:window-maximized="0"
     inkscape:current-layer="layer1">
    <inkscape:grid
       id="grid1"
       units="px"
       originx="0"
       originy="0"
       spacingx="0.5"
       spacingy="0.5"
       empcolor="#0099e5"
       empopacity="0.30196078"
       color="#0099e5"
       opacity="0.14901961"
       empspacing="2"
       dotted="false"
       gridanglex="30"
       gridanglez="30"
       visible="true" />
  </sodipodi:namedview>
  <defs
     id="defs1" />
  <g
     inkscape:label="Layer 1"
     inkscape:groupmode="layer"
     id="layer1">
    <rect
       style="fill:#fcb800;stroke:#000000;stroke-width:2;stroke-linecap:round;stroke-linejoin:round;stroke-dasharray:none;stroke-opacity:1;paint-order:normal;fill-opacity:1"
       id="rect1"
       width="22"
       height="22"
       x="1"
       y="1"
       rx="2" />
    <g
       id="g4">
      <path
         style="fill:#b03400;fill-opacity:1;stroke:#000000;stroke-width:2;stroke-linecap:round;stroke-linejoin:round;stroke-dasharray:none;stroke-opacity:1;paint-order:stroke fill markers"
         d="M 6,18 C 3.5,15.5 3.5,12 5,11 6.5,10 8.5,10 9.5,9 c 1,-1 1,-3 2,-4 0.5,-0.5 1,-1 1.5,-1 0.5,0 1,0 0.5,0.5 -1,1 -2,2 -1,3 C 13,8 14,8 15,7 l 5.5,-5.5 h 1 l 1,1 v 1 L 15,11 c -0.5,0.5 -0.5,1.5 0,2 0.5,0.5 1.5,0.5 2.5,-0.5 0.5,-0.5 1,-0.5 0.5,0.5 -0.5,1 -2.5,1 -3.5,2 -1,1 -0.5,2.5 -1.5,4 -1,1.5 -4.5,1.5 -7,-1 z"
         id="path1"
         sodipodi:nodetypes="zzssssssccccssszszz" />
      <path
         style="fill:#764415;fill-opacity:1;stroke:#000000;stroke-width:2;stroke-linecap:round;stroke-linejoin:round;stroke-dasharray:none;stroke-opacity:1;paint-order:stroke fill markers"
         d="m 20,2 h 1.5 L 22,2.5 V 4 l -7,7 -2,-2 z"
         id="path3" />
      <path
         style="fill:#000000;fill-opacity:1;stroke:none;stroke-width:1;stroke-linecap:round;stroke-linejoin:round;stroke-dasharray:none;stroke-opacity:1;paint-order:normal"
         d="M 13,9 8.5,13.5 8,13 7,14 10,17 11,16 10.5,15.5 15,11 14.5,10.5 10,15 9,14 13.5,9.5 Z"
         id="path4"
         sodipodi:nodetypes="ccccccccccccc" />
    </g>
  </g>
</svg>
